# xmcd
#
# Track frame offsets: 
#        150
#        12914
#        31453
#        51290
#        75181
#        109332
#        135820
#        153858
#        169953
#        186611
#        210135
#        232335
#        261136
#
# Disc length: 3800 seconds
#
# Revision: 1
# Processed by: cddbd v1.5.2PL0 Copyright (c) Steve Scherf et al.
# Submitted via: ExactAudioCopy v1.0b3
#
DISCID=a50ed60d
DTITLE=Bloden-Wedd - Eye Of Horus
DYEAR=2005
DGENRE=Metal
TTITLE0=Lone Runner
TTITLE1=Firebird
TTITLE2=7th Gate
TTITLE3=Still Believe
TTITLE4=Eye Of Horus
TTITLE5=Through The Heaven's Eyes
TTITLE6=Down The Road
TTITLE7=Power Metal Pride
TTITLE8=Daughter Of The Minotaur
TTITLE9=Untold Words
TTITLE10=Exodus
TTITLE11=Crazy Doctor (Loudness Cover)
TTITLE12=LONE RUNNER(PV)
EXTD=YEAR: 2005
EXTT0=
EXTT1=
EXTT2=
EXTT3=
EXTT4=
EXTT5=
EXTT6=
EXTT7=
EXTT8=
EXTT9=
EXTT10=
EXTT11=
EXTT12=
PLAYORDER=
